<svg xmlns="http://www.w3.org/2000/svg" viewBox="0 0 800 360" width="800" height="360" role="img" aria-labelledby="t d">
  <title id="t">My Kaggle Notebooks illustration</title>
  <desc id="d">A notebook with code cells that build, train, and plot a model, next to training curves where loss falls and accuracy rises.</desc>
  <defs>
    <linearGradient id="bg" x1="0" y1="0" x2="0" y2="1">
      <stop offset="0" stop-color="#16213b"/>
      <stop offset="1" stop-color="#0b1222"/>
    </linearGradient>
  </defs>
  <rect width="800" height="360" fill="url(#bg)"/>
  <rect x="40" y="36" width="720" height="290" rx="14" fill="#0e1628" stroke="#334155" stroke-width="2"/>
  <rect x="40" y="36" width="720" height="34" rx="14" fill="#1e293b"/><rect x="40" y="56" width="720" height="14" fill="#1e293b"/>
  <circle cx="64" cy="53" r="6" fill="#f43f5e"/>
  <circle cx="84" cy="53" r="6" fill="#facc15"/>
  <circle cx="104" cy="53" r="6" fill="#34d399"/>
  <text x="62" y="102" font-family="ui-monospace, Menlo, monospace" font-size="17" fill="#38bdf8">In [1]:</text>
  <rect x="140" y="80" width="360" height="32" rx="6" fill="#16213b"/>
  <text x="152" y="102" font-family="ui-monospace, Menlo, monospace" font-size="16" fill="#e2e8f0">model = build_model()</text>
  <text x="62" y="142" font-family="ui-monospace, Menlo, monospace" font-size="17" fill="#38bdf8">In [2]:</text>
  <rect x="140" y="120" width="360" height="32" rx="6" fill="#16213b"/>
  <text x="152" y="142" font-family="ui-monospace, Menlo, monospace" font-size="16" fill="#e2e8f0">history = model.fit(train)</text>
  <text x="62" y="182" font-family="ui-monospace, Menlo, monospace" font-size="17" fill="#38bdf8">In [3]:</text>
  <rect x="140" y="160" width="360" height="32" rx="6" fill="#16213b"/>
  <text x="152" y="182" font-family="ui-monospace, Menlo, monospace" font-size="16" fill="#e2e8f0">plot(history)</text>
  <path d="M530 290 V100 M530 290 H740" stroke="#64748b" stroke-width="2"/>
  <path d="M530.0 108.0 L540.5 138.8 L551.0 164.0 L561.5 184.7 L572.0 201.6 L582.5 215.5 L593.0 226.8 L603.5 236.1 L614.0 243.7 L624.5 249.9 L635.0 255.0 L645.5 259.2 L656.0 262.6 L666.5 265.4 L677.0 267.7 L687.5 269.5 L698.0 271.1 L708.5 272.3 L719.0 273.4 L729.5 274.2" stroke="#f43f5e" stroke-width="3" fill="none"/>
  <path d="M530.0 270.0 L540.5 234.6 L551.0 207.0 L561.5 185.6 L572.0 168.9 L582.5 155.8 L593.0 145.7 L603.5 137.8 L614.0 131.7 L624.5 126.9 L635.0 123.1 L645.5 120.2 L656.0 118.0 L666.5 116.2 L677.0 114.8 L687.5 113.8 L698.0 112.9 L708.5 112.3 L719.0 111.8 L729.5 111.4" stroke="#34d399" stroke-width="3" fill="none"/>
  <rect x="569.0" y="295.0" width="62.0" height="30" rx="15.0" fill="#f43f5e" fill-opacity=".16" stroke="#f43f5e" stroke-opacity=".6"/>
  <text x="600.0" y="318.0" text-anchor="middle" font-family="Inter, Segoe UI, Helvetica, Arial, sans-serif" font-size="16" font-weight="700" fill="#f43f5e">loss</text>
  <rect x="630.0" y="295.0" width="104.0" height="30" rx="15.0" fill="#34d399" fill-opacity=".16" stroke="#34d399" stroke-opacity=".6"/>
  <text x="682.0" y="318.0" text-anchor="middle" font-family="Inter, Segoe UI, Helvetica, Arial, sans-serif" font-size="16" font-weight="700" fill="#34d399">accuracy</text>

</svg>
